<mxfile host="app.diagrams.net" agent="Mozilla/5.0 (Windows NT 10.0; Win64; x64) AppleWebKit/537.36 (KHTML, like Gecko) Chrome/131.0.0.0 Safari/537.36" version="25.0.3">
  <diagram id="C5RBs43oDa-KdzZeNtuy" name="Page-1">
    <mxGraphModel dx="1290" dy="530" grid="1" gridSize="10" guides="1" tooltips="1" connect="1" arrows="1" fold="1" page="1" pageScale="1" pageWidth="827" pageHeight="1169" math="0" shadow="0">
      <root>
        <mxCell id="WIyWlLk6GJQsqaUBKTNV-0" />
        <mxCell id="WIyWlLk6GJQsqaUBKTNV-1" parent="WIyWlLk6GJQsqaUBKTNV-0" />
        <mxCell id="o-4c5RwKT9bV8I94RvlF-3" style="edgeStyle=orthogonalEdgeStyle;rounded=0;orthogonalLoop=1;jettySize=auto;html=1;exitX=0.5;exitY=1;exitDx=0;exitDy=0;exitPerimeter=0;entryX=0.5;entryY=0;entryDx=0;entryDy=0;" edge="1" parent="WIyWlLk6GJQsqaUBKTNV-1" source="o-4c5RwKT9bV8I94RvlF-0" target="o-4c5RwKT9bV8I94RvlF-2">
          <mxGeometry relative="1" as="geometry" />
        </mxCell>
        <mxCell id="o-4c5RwKT9bV8I94RvlF-0" value="START" style="strokeWidth=2;html=1;shape=mxgraph.flowchart.start_1;whiteSpace=wrap;" vertex="1" parent="WIyWlLk6GJQsqaUBKTNV-1">
          <mxGeometry x="70" y="10" width="100" height="60" as="geometry" />
        </mxCell>
        <mxCell id="o-4c5RwKT9bV8I94RvlF-7" style="edgeStyle=orthogonalEdgeStyle;rounded=0;orthogonalLoop=1;jettySize=auto;html=1;exitX=0.5;exitY=1;exitDx=0;exitDy=0;exitPerimeter=0;" edge="1" parent="WIyWlLk6GJQsqaUBKTNV-1" source="o-4c5RwKT9bV8I94RvlF-1" target="o-4c5RwKT9bV8I94RvlF-6">
          <mxGeometry relative="1" as="geometry" />
        </mxCell>
        <mxCell id="o-4c5RwKT9bV8I94RvlF-31" value="YES" style="edgeLabel;html=1;align=center;verticalAlign=middle;resizable=0;points=[];" vertex="1" connectable="0" parent="o-4c5RwKT9bV8I94RvlF-7">
          <mxGeometry x="-0.2067" y="-1" relative="1" as="geometry">
            <mxPoint as="offset" />
          </mxGeometry>
        </mxCell>
        <mxCell id="o-4c5RwKT9bV8I94RvlF-1" value="TS &amp;gt;= 1 000 000" style="strokeWidth=2;html=1;shape=mxgraph.flowchart.decision;whiteSpace=wrap;" vertex="1" parent="WIyWlLk6GJQsqaUBKTNV-1">
          <mxGeometry x="60" y="260" width="120" height="120" as="geometry" />
        </mxCell>
        <mxCell id="o-4c5RwKT9bV8I94RvlF-2" value="READ TOTALSALES" style="shape=parallelogram;html=1;strokeWidth=2;perimeter=parallelogramPerimeter;whiteSpace=wrap;rounded=1;arcSize=12;size=0.23;" vertex="1" parent="WIyWlLk6GJQsqaUBKTNV-1">
          <mxGeometry x="15" y="130" width="210" height="60" as="geometry" />
        </mxCell>
        <mxCell id="o-4c5RwKT9bV8I94RvlF-4" style="edgeStyle=orthogonalEdgeStyle;rounded=0;orthogonalLoop=1;jettySize=auto;html=1;exitX=0.5;exitY=1;exitDx=0;exitDy=0;entryX=0.5;entryY=0;entryDx=0;entryDy=0;entryPerimeter=0;" edge="1" parent="WIyWlLk6GJQsqaUBKTNV-1" source="o-4c5RwKT9bV8I94RvlF-2" target="o-4c5RwKT9bV8I94RvlF-1">
          <mxGeometry relative="1" as="geometry" />
        </mxCell>
        <mxCell id="o-4c5RwKT9bV8I94RvlF-30" style="edgeStyle=orthogonalEdgeStyle;rounded=0;orthogonalLoop=1;jettySize=auto;html=1;exitX=0.5;exitY=1;exitDx=0;exitDy=0;entryX=0;entryY=0.5;entryDx=0;entryDy=0;" edge="1" parent="WIyWlLk6GJQsqaUBKTNV-1" source="o-4c5RwKT9bV8I94RvlF-6" target="o-4c5RwKT9bV8I94RvlF-22">
          <mxGeometry relative="1" as="geometry">
            <Array as="points">
              <mxPoint x="120" y="610" />
              <mxPoint x="476" y="610" />
            </Array>
          </mxGeometry>
        </mxCell>
        <mxCell id="o-4c5RwKT9bV8I94RvlF-6" value="PERCENTAGE = (TS * 1) / 100" style="rounded=1;whiteSpace=wrap;html=1;absoluteArcSize=1;arcSize=14;strokeWidth=2;" vertex="1" parent="WIyWlLk6GJQsqaUBKTNV-1">
          <mxGeometry x="20" y="440" width="200" height="50" as="geometry" />
        </mxCell>
        <mxCell id="o-4c5RwKT9bV8I94RvlF-11" style="edgeStyle=orthogonalEdgeStyle;rounded=0;orthogonalLoop=1;jettySize=auto;html=1;exitX=0.5;exitY=1;exitDx=0;exitDy=0;exitPerimeter=0;entryX=0.5;entryY=0;entryDx=0;entryDy=0;" edge="1" parent="WIyWlLk6GJQsqaUBKTNV-1" source="o-4c5RwKT9bV8I94RvlF-8" target="o-4c5RwKT9bV8I94RvlF-10">
          <mxGeometry relative="1" as="geometry" />
        </mxCell>
        <mxCell id="o-4c5RwKT9bV8I94RvlF-32" value="YES" style="edgeLabel;html=1;align=center;verticalAlign=middle;resizable=0;points=[];" vertex="1" connectable="0" parent="o-4c5RwKT9bV8I94RvlF-11">
          <mxGeometry x="-0.4067" y="-2" relative="1" as="geometry">
            <mxPoint as="offset" />
          </mxGeometry>
        </mxCell>
        <mxCell id="o-4c5RwKT9bV8I94RvlF-8" value="TS &amp;gt;= 500 000" style="strokeWidth=2;html=1;shape=mxgraph.flowchart.decision;whiteSpace=wrap;" vertex="1" parent="WIyWlLk6GJQsqaUBKTNV-1">
          <mxGeometry x="290" y="260" width="120" height="120" as="geometry" />
        </mxCell>
        <mxCell id="o-4c5RwKT9bV8I94RvlF-9" style="edgeStyle=orthogonalEdgeStyle;rounded=0;orthogonalLoop=1;jettySize=auto;html=1;exitX=1;exitY=0.5;exitDx=0;exitDy=0;exitPerimeter=0;entryX=0;entryY=0.5;entryDx=0;entryDy=0;entryPerimeter=0;" edge="1" parent="WIyWlLk6GJQsqaUBKTNV-1" source="o-4c5RwKT9bV8I94RvlF-1" target="o-4c5RwKT9bV8I94RvlF-8">
          <mxGeometry relative="1" as="geometry" />
        </mxCell>
        <mxCell id="o-4c5RwKT9bV8I94RvlF-38" value="NO" style="edgeLabel;html=1;align=center;verticalAlign=middle;resizable=0;points=[];" vertex="1" connectable="0" parent="o-4c5RwKT9bV8I94RvlF-9">
          <mxGeometry x="-0.1964" y="-1" relative="1" as="geometry">
            <mxPoint as="offset" />
          </mxGeometry>
        </mxCell>
        <mxCell id="o-4c5RwKT9bV8I94RvlF-29" style="edgeStyle=orthogonalEdgeStyle;rounded=0;orthogonalLoop=1;jettySize=auto;html=1;exitX=0.5;exitY=1;exitDx=0;exitDy=0;entryX=0;entryY=0.5;entryDx=0;entryDy=0;" edge="1" parent="WIyWlLk6GJQsqaUBKTNV-1" source="o-4c5RwKT9bV8I94RvlF-10" target="o-4c5RwKT9bV8I94RvlF-22">
          <mxGeometry relative="1" as="geometry">
            <Array as="points">
              <mxPoint x="350" y="610" />
              <mxPoint x="476" y="610" />
            </Array>
          </mxGeometry>
        </mxCell>
        <mxCell id="o-4c5RwKT9bV8I94RvlF-10" value="PERCENTAGE = (TS * 2) / 100" style="rounded=1;whiteSpace=wrap;html=1;absoluteArcSize=1;arcSize=14;strokeWidth=2;" vertex="1" parent="WIyWlLk6GJQsqaUBKTNV-1">
          <mxGeometry x="250" y="440" width="200" height="50" as="geometry" />
        </mxCell>
        <mxCell id="o-4c5RwKT9bV8I94RvlF-26" style="edgeStyle=orthogonalEdgeStyle;rounded=0;orthogonalLoop=1;jettySize=auto;html=1;exitX=0.5;exitY=1;exitDx=0;exitDy=0;entryX=0.5;entryY=0;entryDx=0;entryDy=0;" edge="1" parent="WIyWlLk6GJQsqaUBKTNV-1" source="o-4c5RwKT9bV8I94RvlF-12" target="o-4c5RwKT9bV8I94RvlF-22">
          <mxGeometry relative="1" as="geometry" />
        </mxCell>
        <mxCell id="o-4c5RwKT9bV8I94RvlF-12" value="PERCENTAGE = (TS * 3) / 100" style="rounded=1;whiteSpace=wrap;html=1;absoluteArcSize=1;arcSize=14;strokeWidth=2;" vertex="1" parent="WIyWlLk6GJQsqaUBKTNV-1">
          <mxGeometry x="480" y="440" width="200" height="50" as="geometry" />
        </mxCell>
        <mxCell id="o-4c5RwKT9bV8I94RvlF-27" style="edgeStyle=orthogonalEdgeStyle;rounded=0;orthogonalLoop=1;jettySize=auto;html=1;exitX=0.5;exitY=1;exitDx=0;exitDy=0;entryX=1;entryY=0.5;entryDx=0;entryDy=0;" edge="1" parent="WIyWlLk6GJQsqaUBKTNV-1" source="o-4c5RwKT9bV8I94RvlF-13" target="o-4c5RwKT9bV8I94RvlF-22">
          <mxGeometry relative="1" as="geometry">
            <Array as="points">
              <mxPoint x="810" y="615" />
            </Array>
          </mxGeometry>
        </mxCell>
        <mxCell id="o-4c5RwKT9bV8I94RvlF-13" value="PERCENTAGE = (TS * 5) / 100" style="rounded=1;whiteSpace=wrap;html=1;absoluteArcSize=1;arcSize=14;strokeWidth=2;" vertex="1" parent="WIyWlLk6GJQsqaUBKTNV-1">
          <mxGeometry x="710" y="440" width="200" height="50" as="geometry" />
        </mxCell>
        <mxCell id="o-4c5RwKT9bV8I94RvlF-28" style="edgeStyle=orthogonalEdgeStyle;rounded=0;orthogonalLoop=1;jettySize=auto;html=1;exitX=0.5;exitY=1;exitDx=0;exitDy=0;entryX=1;entryY=0.5;entryDx=0;entryDy=0;" edge="1" parent="WIyWlLk6GJQsqaUBKTNV-1" source="o-4c5RwKT9bV8I94RvlF-14" target="o-4c5RwKT9bV8I94RvlF-22">
          <mxGeometry relative="1" as="geometry">
            <Array as="points">
              <mxPoint x="1040" y="615" />
            </Array>
          </mxGeometry>
        </mxCell>
        <mxCell id="o-4c5RwKT9bV8I94RvlF-14" value="PERCENTAGE = 0" style="rounded=1;whiteSpace=wrap;html=1;absoluteArcSize=1;arcSize=14;strokeWidth=2;" vertex="1" parent="WIyWlLk6GJQsqaUBKTNV-1">
          <mxGeometry x="940" y="440" width="200" height="50" as="geometry" />
        </mxCell>
        <mxCell id="o-4c5RwKT9bV8I94RvlF-19" style="edgeStyle=orthogonalEdgeStyle;rounded=0;orthogonalLoop=1;jettySize=auto;html=1;exitX=0.5;exitY=1;exitDx=0;exitDy=0;exitPerimeter=0;" edge="1" parent="WIyWlLk6GJQsqaUBKTNV-1" source="o-4c5RwKT9bV8I94RvlF-15" target="o-4c5RwKT9bV8I94RvlF-12">
          <mxGeometry relative="1" as="geometry" />
        </mxCell>
        <mxCell id="o-4c5RwKT9bV8I94RvlF-33" value="YES" style="edgeLabel;html=1;align=center;verticalAlign=middle;resizable=0;points=[];" vertex="1" connectable="0" parent="o-4c5RwKT9bV8I94RvlF-19">
          <mxGeometry x="-0.3733" y="-1" relative="1" as="geometry">
            <mxPoint as="offset" />
          </mxGeometry>
        </mxCell>
        <mxCell id="o-4c5RwKT9bV8I94RvlF-15" value="TS &amp;gt;= 100 000" style="strokeWidth=2;html=1;shape=mxgraph.flowchart.decision;whiteSpace=wrap;" vertex="1" parent="WIyWlLk6GJQsqaUBKTNV-1">
          <mxGeometry x="520" y="260" width="120" height="120" as="geometry" />
        </mxCell>
        <mxCell id="o-4c5RwKT9bV8I94RvlF-20" style="edgeStyle=orthogonalEdgeStyle;rounded=0;orthogonalLoop=1;jettySize=auto;html=1;exitX=0.5;exitY=1;exitDx=0;exitDy=0;exitPerimeter=0;entryX=0.5;entryY=0;entryDx=0;entryDy=0;" edge="1" parent="WIyWlLk6GJQsqaUBKTNV-1" source="o-4c5RwKT9bV8I94RvlF-16" target="o-4c5RwKT9bV8I94RvlF-13">
          <mxGeometry relative="1" as="geometry" />
        </mxCell>
        <mxCell id="o-4c5RwKT9bV8I94RvlF-34" value="YES" style="edgeLabel;html=1;align=center;verticalAlign=middle;resizable=0;points=[];" vertex="1" connectable="0" parent="o-4c5RwKT9bV8I94RvlF-20">
          <mxGeometry x="-0.4733" y="-2" relative="1" as="geometry">
            <mxPoint as="offset" />
          </mxGeometry>
        </mxCell>
        <mxCell id="o-4c5RwKT9bV8I94RvlF-21" style="edgeStyle=orthogonalEdgeStyle;rounded=0;orthogonalLoop=1;jettySize=auto;html=1;exitX=1;exitY=0.5;exitDx=0;exitDy=0;exitPerimeter=0;entryX=0.5;entryY=0;entryDx=0;entryDy=0;" edge="1" parent="WIyWlLk6GJQsqaUBKTNV-1" source="o-4c5RwKT9bV8I94RvlF-16" target="o-4c5RwKT9bV8I94RvlF-14">
          <mxGeometry relative="1" as="geometry" />
        </mxCell>
        <mxCell id="o-4c5RwKT9bV8I94RvlF-35" value="NO" style="edgeLabel;html=1;align=center;verticalAlign=middle;resizable=0;points=[];" vertex="1" connectable="0" parent="o-4c5RwKT9bV8I94RvlF-21">
          <mxGeometry x="-0.4607" y="-2" relative="1" as="geometry">
            <mxPoint as="offset" />
          </mxGeometry>
        </mxCell>
        <mxCell id="o-4c5RwKT9bV8I94RvlF-16" value="TS &amp;gt;= 50 000" style="strokeWidth=2;html=1;shape=mxgraph.flowchart.decision;whiteSpace=wrap;" vertex="1" parent="WIyWlLk6GJQsqaUBKTNV-1">
          <mxGeometry x="750" y="260" width="120" height="120" as="geometry" />
        </mxCell>
        <mxCell id="o-4c5RwKT9bV8I94RvlF-17" style="edgeStyle=orthogonalEdgeStyle;rounded=0;orthogonalLoop=1;jettySize=auto;html=1;exitX=1;exitY=0.5;exitDx=0;exitDy=0;exitPerimeter=0;entryX=0;entryY=0.5;entryDx=0;entryDy=0;entryPerimeter=0;" edge="1" parent="WIyWlLk6GJQsqaUBKTNV-1" source="o-4c5RwKT9bV8I94RvlF-8" target="o-4c5RwKT9bV8I94RvlF-15">
          <mxGeometry relative="1" as="geometry" />
        </mxCell>
        <mxCell id="o-4c5RwKT9bV8I94RvlF-37" value="NO" style="edgeLabel;html=1;align=center;verticalAlign=middle;resizable=0;points=[];" vertex="1" connectable="0" parent="o-4c5RwKT9bV8I94RvlF-17">
          <mxGeometry x="-0.2145" y="-1" relative="1" as="geometry">
            <mxPoint as="offset" />
          </mxGeometry>
        </mxCell>
        <mxCell id="o-4c5RwKT9bV8I94RvlF-18" style="edgeStyle=orthogonalEdgeStyle;rounded=0;orthogonalLoop=1;jettySize=auto;html=1;exitX=1;exitY=0.5;exitDx=0;exitDy=0;exitPerimeter=0;entryX=0;entryY=0.5;entryDx=0;entryDy=0;entryPerimeter=0;" edge="1" parent="WIyWlLk6GJQsqaUBKTNV-1" source="o-4c5RwKT9bV8I94RvlF-15" target="o-4c5RwKT9bV8I94RvlF-16">
          <mxGeometry relative="1" as="geometry" />
        </mxCell>
        <mxCell id="o-4c5RwKT9bV8I94RvlF-36" value="NO" style="edgeLabel;html=1;align=center;verticalAlign=middle;resizable=0;points=[];" vertex="1" connectable="0" parent="o-4c5RwKT9bV8I94RvlF-18">
          <mxGeometry x="-0.0327" relative="1" as="geometry">
            <mxPoint as="offset" />
          </mxGeometry>
        </mxCell>
        <mxCell id="o-4c5RwKT9bV8I94RvlF-22" value="PRINT PRECENTAGE" style="shape=parallelogram;html=1;strokeWidth=2;perimeter=parallelogramPerimeter;whiteSpace=wrap;rounded=1;arcSize=12;size=0.23;" vertex="1" parent="WIyWlLk6GJQsqaUBKTNV-1">
          <mxGeometry x="445" y="585" width="270" height="60" as="geometry" />
        </mxCell>
        <mxCell id="o-4c5RwKT9bV8I94RvlF-39" style="edgeStyle=orthogonalEdgeStyle;rounded=0;orthogonalLoop=1;jettySize=auto;html=1;exitX=0.5;exitY=1;exitDx=0;exitDy=0;exitPerimeter=0;entryX=0.5;entryY=0;entryDx=0;entryDy=0;" edge="1" parent="WIyWlLk6GJQsqaUBKTNV-1" target="o-4c5RwKT9bV8I94RvlF-43">
          <mxGeometry relative="1" as="geometry">
            <mxPoint x="145" y="710" as="sourcePoint" />
          </mxGeometry>
        </mxCell>
        <mxCell id="o-4c5RwKT9bV8I94RvlF-40" style="edgeStyle=orthogonalEdgeStyle;rounded=0;orthogonalLoop=1;jettySize=auto;html=1;exitX=0.5;exitY=1;exitDx=0;exitDy=0;exitPerimeter=0;" edge="1" parent="WIyWlLk6GJQsqaUBKTNV-1" source="o-4c5RwKT9bV8I94RvlF-42" target="o-4c5RwKT9bV8I94RvlF-46">
          <mxGeometry relative="1" as="geometry" />
        </mxCell>
        <mxCell id="o-4c5RwKT9bV8I94RvlF-41" value="YES" style="edgeLabel;html=1;align=center;verticalAlign=middle;resizable=0;points=[];" vertex="1" connectable="0" parent="o-4c5RwKT9bV8I94RvlF-40">
          <mxGeometry x="-0.2067" y="-1" relative="1" as="geometry">
            <mxPoint as="offset" />
          </mxGeometry>
        </mxCell>
        <mxCell id="o-4c5RwKT9bV8I94RvlF-42" value="TS &amp;gt;= 1 000 000" style="strokeWidth=2;html=1;shape=mxgraph.flowchart.decision;whiteSpace=wrap;" vertex="1" parent="WIyWlLk6GJQsqaUBKTNV-1">
          <mxGeometry x="85" y="900" width="120" height="120" as="geometry" />
        </mxCell>
        <mxCell id="o-4c5RwKT9bV8I94RvlF-43" value="READ TOTALSALES" style="shape=parallelogram;html=1;strokeWidth=2;perimeter=parallelogramPerimeter;whiteSpace=wrap;rounded=1;arcSize=12;size=0.23;" vertex="1" parent="WIyWlLk6GJQsqaUBKTNV-1">
          <mxGeometry x="40" y="770" width="210" height="60" as="geometry" />
        </mxCell>
        <mxCell id="o-4c5RwKT9bV8I94RvlF-44" style="edgeStyle=orthogonalEdgeStyle;rounded=0;orthogonalLoop=1;jettySize=auto;html=1;exitX=0.5;exitY=1;exitDx=0;exitDy=0;entryX=0.5;entryY=0;entryDx=0;entryDy=0;entryPerimeter=0;" edge="1" parent="WIyWlLk6GJQsqaUBKTNV-1" source="o-4c5RwKT9bV8I94RvlF-43" target="o-4c5RwKT9bV8I94RvlF-42">
          <mxGeometry relative="1" as="geometry" />
        </mxCell>
        <mxCell id="o-4c5RwKT9bV8I94RvlF-45" style="edgeStyle=orthogonalEdgeStyle;rounded=0;orthogonalLoop=1;jettySize=auto;html=1;exitX=0.5;exitY=1;exitDx=0;exitDy=0;entryX=0;entryY=0.5;entryDx=0;entryDy=0;" edge="1" parent="WIyWlLk6GJQsqaUBKTNV-1" source="o-4c5RwKT9bV8I94RvlF-46" target="o-4c5RwKT9bV8I94RvlF-72">
          <mxGeometry relative="1" as="geometry">
            <Array as="points">
              <mxPoint x="145" y="1250" />
              <mxPoint x="501" y="1250" />
            </Array>
          </mxGeometry>
        </mxCell>
        <mxCell id="o-4c5RwKT9bV8I94RvlF-46" value="PERCENTAGE = 0,01" style="rounded=1;whiteSpace=wrap;html=1;absoluteArcSize=1;arcSize=14;strokeWidth=2;" vertex="1" parent="WIyWlLk6GJQsqaUBKTNV-1">
          <mxGeometry x="45" y="1080" width="200" height="50" as="geometry" />
        </mxCell>
        <mxCell id="o-4c5RwKT9bV8I94RvlF-47" style="edgeStyle=orthogonalEdgeStyle;rounded=0;orthogonalLoop=1;jettySize=auto;html=1;exitX=0.5;exitY=1;exitDx=0;exitDy=0;exitPerimeter=0;entryX=0.5;entryY=0;entryDx=0;entryDy=0;" edge="1" parent="WIyWlLk6GJQsqaUBKTNV-1" source="o-4c5RwKT9bV8I94RvlF-49" target="o-4c5RwKT9bV8I94RvlF-53">
          <mxGeometry relative="1" as="geometry" />
        </mxCell>
        <mxCell id="o-4c5RwKT9bV8I94RvlF-48" value="YES" style="edgeLabel;html=1;align=center;verticalAlign=middle;resizable=0;points=[];" vertex="1" connectable="0" parent="o-4c5RwKT9bV8I94RvlF-47">
          <mxGeometry x="-0.4067" y="-2" relative="1" as="geometry">
            <mxPoint as="offset" />
          </mxGeometry>
        </mxCell>
        <mxCell id="o-4c5RwKT9bV8I94RvlF-49" value="TS &amp;gt;= 500 000" style="strokeWidth=2;html=1;shape=mxgraph.flowchart.decision;whiteSpace=wrap;" vertex="1" parent="WIyWlLk6GJQsqaUBKTNV-1">
          <mxGeometry x="315" y="900" width="120" height="120" as="geometry" />
        </mxCell>
        <mxCell id="o-4c5RwKT9bV8I94RvlF-50" style="edgeStyle=orthogonalEdgeStyle;rounded=0;orthogonalLoop=1;jettySize=auto;html=1;exitX=1;exitY=0.5;exitDx=0;exitDy=0;exitPerimeter=0;entryX=0;entryY=0.5;entryDx=0;entryDy=0;entryPerimeter=0;" edge="1" parent="WIyWlLk6GJQsqaUBKTNV-1" source="o-4c5RwKT9bV8I94RvlF-42" target="o-4c5RwKT9bV8I94RvlF-49">
          <mxGeometry relative="1" as="geometry" />
        </mxCell>
        <mxCell id="o-4c5RwKT9bV8I94RvlF-51" value="NO" style="edgeLabel;html=1;align=center;verticalAlign=middle;resizable=0;points=[];" vertex="1" connectable="0" parent="o-4c5RwKT9bV8I94RvlF-50">
          <mxGeometry x="-0.1964" y="-1" relative="1" as="geometry">
            <mxPoint as="offset" />
          </mxGeometry>
        </mxCell>
        <mxCell id="o-4c5RwKT9bV8I94RvlF-52" style="edgeStyle=orthogonalEdgeStyle;rounded=0;orthogonalLoop=1;jettySize=auto;html=1;exitX=0.5;exitY=1;exitDx=0;exitDy=0;entryX=0;entryY=0.5;entryDx=0;entryDy=0;" edge="1" parent="WIyWlLk6GJQsqaUBKTNV-1" source="o-4c5RwKT9bV8I94RvlF-53" target="o-4c5RwKT9bV8I94RvlF-72">
          <mxGeometry relative="1" as="geometry">
            <Array as="points">
              <mxPoint x="375" y="1250" />
              <mxPoint x="501" y="1250" />
            </Array>
          </mxGeometry>
        </mxCell>
        <mxCell id="o-4c5RwKT9bV8I94RvlF-53" value="PERCENTAGE = 0,02" style="rounded=1;whiteSpace=wrap;html=1;absoluteArcSize=1;arcSize=14;strokeWidth=2;" vertex="1" parent="WIyWlLk6GJQsqaUBKTNV-1">
          <mxGeometry x="275" y="1080" width="200" height="50" as="geometry" />
        </mxCell>
        <mxCell id="o-4c5RwKT9bV8I94RvlF-54" style="edgeStyle=orthogonalEdgeStyle;rounded=0;orthogonalLoop=1;jettySize=auto;html=1;exitX=0.5;exitY=1;exitDx=0;exitDy=0;entryX=0.5;entryY=0;entryDx=0;entryDy=0;" edge="1" parent="WIyWlLk6GJQsqaUBKTNV-1" source="o-4c5RwKT9bV8I94RvlF-55" target="o-4c5RwKT9bV8I94RvlF-72">
          <mxGeometry relative="1" as="geometry" />
        </mxCell>
        <mxCell id="o-4c5RwKT9bV8I94RvlF-55" value="PERCENTAGE = 0,03" style="rounded=1;whiteSpace=wrap;html=1;absoluteArcSize=1;arcSize=14;strokeWidth=2;" vertex="1" parent="WIyWlLk6GJQsqaUBKTNV-1">
          <mxGeometry x="505" y="1080" width="200" height="50" as="geometry" />
        </mxCell>
        <mxCell id="o-4c5RwKT9bV8I94RvlF-56" style="edgeStyle=orthogonalEdgeStyle;rounded=0;orthogonalLoop=1;jettySize=auto;html=1;exitX=0.5;exitY=1;exitDx=0;exitDy=0;entryX=1;entryY=0.5;entryDx=0;entryDy=0;" edge="1" parent="WIyWlLk6GJQsqaUBKTNV-1" source="o-4c5RwKT9bV8I94RvlF-57" target="o-4c5RwKT9bV8I94RvlF-72">
          <mxGeometry relative="1" as="geometry">
            <Array as="points">
              <mxPoint x="835" y="1255" />
            </Array>
          </mxGeometry>
        </mxCell>
        <mxCell id="o-4c5RwKT9bV8I94RvlF-57" value="PERCENTAGE = 0,05" style="rounded=1;whiteSpace=wrap;html=1;absoluteArcSize=1;arcSize=14;strokeWidth=2;" vertex="1" parent="WIyWlLk6GJQsqaUBKTNV-1">
          <mxGeometry x="735" y="1080" width="200" height="50" as="geometry" />
        </mxCell>
        <mxCell id="o-4c5RwKT9bV8I94RvlF-58" style="edgeStyle=orthogonalEdgeStyle;rounded=0;orthogonalLoop=1;jettySize=auto;html=1;exitX=0.5;exitY=1;exitDx=0;exitDy=0;entryX=1;entryY=0.5;entryDx=0;entryDy=0;" edge="1" parent="WIyWlLk6GJQsqaUBKTNV-1" source="o-4c5RwKT9bV8I94RvlF-59" target="o-4c5RwKT9bV8I94RvlF-72">
          <mxGeometry relative="1" as="geometry">
            <Array as="points">
              <mxPoint x="1065" y="1255" />
            </Array>
          </mxGeometry>
        </mxCell>
        <mxCell id="o-4c5RwKT9bV8I94RvlF-59" value="PERCENTAGE = 0" style="rounded=1;whiteSpace=wrap;html=1;absoluteArcSize=1;arcSize=14;strokeWidth=2;" vertex="1" parent="WIyWlLk6GJQsqaUBKTNV-1">
          <mxGeometry x="965" y="1080" width="200" height="50" as="geometry" />
        </mxCell>
        <mxCell id="o-4c5RwKT9bV8I94RvlF-60" style="edgeStyle=orthogonalEdgeStyle;rounded=0;orthogonalLoop=1;jettySize=auto;html=1;exitX=0.5;exitY=1;exitDx=0;exitDy=0;exitPerimeter=0;" edge="1" parent="WIyWlLk6GJQsqaUBKTNV-1" source="o-4c5RwKT9bV8I94RvlF-62" target="o-4c5RwKT9bV8I94RvlF-55">
          <mxGeometry relative="1" as="geometry" />
        </mxCell>
        <mxCell id="o-4c5RwKT9bV8I94RvlF-61" value="YES" style="edgeLabel;html=1;align=center;verticalAlign=middle;resizable=0;points=[];" vertex="1" connectable="0" parent="o-4c5RwKT9bV8I94RvlF-60">
          <mxGeometry x="-0.3733" y="-1" relative="1" as="geometry">
            <mxPoint as="offset" />
          </mxGeometry>
        </mxCell>
        <mxCell id="o-4c5RwKT9bV8I94RvlF-62" value="TS &amp;gt;= 100 000" style="strokeWidth=2;html=1;shape=mxgraph.flowchart.decision;whiteSpace=wrap;" vertex="1" parent="WIyWlLk6GJQsqaUBKTNV-1">
          <mxGeometry x="545" y="900" width="120" height="120" as="geometry" />
        </mxCell>
        <mxCell id="o-4c5RwKT9bV8I94RvlF-63" style="edgeStyle=orthogonalEdgeStyle;rounded=0;orthogonalLoop=1;jettySize=auto;html=1;exitX=0.5;exitY=1;exitDx=0;exitDy=0;exitPerimeter=0;entryX=0.5;entryY=0;entryDx=0;entryDy=0;" edge="1" parent="WIyWlLk6GJQsqaUBKTNV-1" source="o-4c5RwKT9bV8I94RvlF-67" target="o-4c5RwKT9bV8I94RvlF-57">
          <mxGeometry relative="1" as="geometry" />
        </mxCell>
        <mxCell id="o-4c5RwKT9bV8I94RvlF-64" value="YES" style="edgeLabel;html=1;align=center;verticalAlign=middle;resizable=0;points=[];" vertex="1" connectable="0" parent="o-4c5RwKT9bV8I94RvlF-63">
          <mxGeometry x="-0.4733" y="-2" relative="1" as="geometry">
            <mxPoint as="offset" />
          </mxGeometry>
        </mxCell>
        <mxCell id="o-4c5RwKT9bV8I94RvlF-65" style="edgeStyle=orthogonalEdgeStyle;rounded=0;orthogonalLoop=1;jettySize=auto;html=1;exitX=1;exitY=0.5;exitDx=0;exitDy=0;exitPerimeter=0;entryX=0.5;entryY=0;entryDx=0;entryDy=0;" edge="1" parent="WIyWlLk6GJQsqaUBKTNV-1" source="o-4c5RwKT9bV8I94RvlF-67" target="o-4c5RwKT9bV8I94RvlF-59">
          <mxGeometry relative="1" as="geometry" />
        </mxCell>
        <mxCell id="o-4c5RwKT9bV8I94RvlF-66" value="NO" style="edgeLabel;html=1;align=center;verticalAlign=middle;resizable=0;points=[];" vertex="1" connectable="0" parent="o-4c5RwKT9bV8I94RvlF-65">
          <mxGeometry x="-0.4607" y="-2" relative="1" as="geometry">
            <mxPoint as="offset" />
          </mxGeometry>
        </mxCell>
        <mxCell id="o-4c5RwKT9bV8I94RvlF-67" value="TS &amp;gt;= 50 000" style="strokeWidth=2;html=1;shape=mxgraph.flowchart.decision;whiteSpace=wrap;" vertex="1" parent="WIyWlLk6GJQsqaUBKTNV-1">
          <mxGeometry x="775" y="900" width="120" height="120" as="geometry" />
        </mxCell>
        <mxCell id="o-4c5RwKT9bV8I94RvlF-68" style="edgeStyle=orthogonalEdgeStyle;rounded=0;orthogonalLoop=1;jettySize=auto;html=1;exitX=1;exitY=0.5;exitDx=0;exitDy=0;exitPerimeter=0;entryX=0;entryY=0.5;entryDx=0;entryDy=0;entryPerimeter=0;" edge="1" parent="WIyWlLk6GJQsqaUBKTNV-1" source="o-4c5RwKT9bV8I94RvlF-49" target="o-4c5RwKT9bV8I94RvlF-62">
          <mxGeometry relative="1" as="geometry" />
        </mxCell>
        <mxCell id="o-4c5RwKT9bV8I94RvlF-69" value="NO" style="edgeLabel;html=1;align=center;verticalAlign=middle;resizable=0;points=[];" vertex="1" connectable="0" parent="o-4c5RwKT9bV8I94RvlF-68">
          <mxGeometry x="-0.2145" y="-1" relative="1" as="geometry">
            <mxPoint as="offset" />
          </mxGeometry>
        </mxCell>
        <mxCell id="o-4c5RwKT9bV8I94RvlF-70" style="edgeStyle=orthogonalEdgeStyle;rounded=0;orthogonalLoop=1;jettySize=auto;html=1;exitX=1;exitY=0.5;exitDx=0;exitDy=0;exitPerimeter=0;entryX=0;entryY=0.5;entryDx=0;entryDy=0;entryPerimeter=0;" edge="1" parent="WIyWlLk6GJQsqaUBKTNV-1" source="o-4c5RwKT9bV8I94RvlF-62" target="o-4c5RwKT9bV8I94RvlF-67">
          <mxGeometry relative="1" as="geometry" />
        </mxCell>
        <mxCell id="o-4c5RwKT9bV8I94RvlF-71" value="NO" style="edgeLabel;html=1;align=center;verticalAlign=middle;resizable=0;points=[];" vertex="1" connectable="0" parent="o-4c5RwKT9bV8I94RvlF-70">
          <mxGeometry x="-0.0327" relative="1" as="geometry">
            <mxPoint as="offset" />
          </mxGeometry>
        </mxCell>
        <mxCell id="o-4c5RwKT9bV8I94RvlF-78" style="edgeStyle=orthogonalEdgeStyle;rounded=0;orthogonalLoop=1;jettySize=auto;html=1;exitX=0.5;exitY=1;exitDx=0;exitDy=0;" edge="1" parent="WIyWlLk6GJQsqaUBKTNV-1" source="o-4c5RwKT9bV8I94RvlF-72" target="o-4c5RwKT9bV8I94RvlF-77">
          <mxGeometry relative="1" as="geometry" />
        </mxCell>
        <mxCell id="o-4c5RwKT9bV8I94RvlF-72" value="TOTALCOMISSION = TS * PRECENTAGE" style="shape=parallelogram;html=1;strokeWidth=2;perimeter=parallelogramPerimeter;whiteSpace=wrap;rounded=1;arcSize=12;size=0.23;" vertex="1" parent="WIyWlLk6GJQsqaUBKTNV-1">
          <mxGeometry x="400" y="1225" width="410" height="60" as="geometry" />
        </mxCell>
        <mxCell id="o-4c5RwKT9bV8I94RvlF-74" value="START" style="strokeWidth=2;html=1;shape=mxgraph.flowchart.start_1;whiteSpace=wrap;" vertex="1" parent="WIyWlLk6GJQsqaUBKTNV-1">
          <mxGeometry x="95" y="650" width="100" height="60" as="geometry" />
        </mxCell>
        <mxCell id="o-4c5RwKT9bV8I94RvlF-75" value="END" style="strokeWidth=2;html=1;shape=mxgraph.flowchart.terminator;whiteSpace=wrap;" vertex="1" parent="WIyWlLk6GJQsqaUBKTNV-1">
          <mxGeometry x="530" y="690" width="100" height="60" as="geometry" />
        </mxCell>
        <mxCell id="o-4c5RwKT9bV8I94RvlF-76" style="edgeStyle=orthogonalEdgeStyle;rounded=0;orthogonalLoop=1;jettySize=auto;html=1;exitX=0.5;exitY=1;exitDx=0;exitDy=0;entryX=0.5;entryY=0;entryDx=0;entryDy=0;entryPerimeter=0;" edge="1" parent="WIyWlLk6GJQsqaUBKTNV-1" source="o-4c5RwKT9bV8I94RvlF-22" target="o-4c5RwKT9bV8I94RvlF-75">
          <mxGeometry relative="1" as="geometry" />
        </mxCell>
        <mxCell id="o-4c5RwKT9bV8I94RvlF-77" value="PRINT TOTALCOMISSION" style="shape=parallelogram;html=1;strokeWidth=2;perimeter=parallelogramPerimeter;whiteSpace=wrap;rounded=1;arcSize=12;size=0.23;" vertex="1" parent="WIyWlLk6GJQsqaUBKTNV-1">
          <mxGeometry x="482.5" y="1330" width="245" height="60" as="geometry" />
        </mxCell>
        <mxCell id="o-4c5RwKT9bV8I94RvlF-79" value="END" style="strokeWidth=2;html=1;shape=mxgraph.flowchart.terminator;whiteSpace=wrap;" vertex="1" parent="WIyWlLk6GJQsqaUBKTNV-1">
          <mxGeometry x="555" y="1430" width="100" height="60" as="geometry" />
        </mxCell>
        <mxCell id="o-4c5RwKT9bV8I94RvlF-80" style="edgeStyle=orthogonalEdgeStyle;rounded=0;orthogonalLoop=1;jettySize=auto;html=1;exitX=0.5;exitY=1;exitDx=0;exitDy=0;entryX=0.5;entryY=0;entryDx=0;entryDy=0;entryPerimeter=0;" edge="1" parent="WIyWlLk6GJQsqaUBKTNV-1" source="o-4c5RwKT9bV8I94RvlF-77" target="o-4c5RwKT9bV8I94RvlF-79">
          <mxGeometry relative="1" as="geometry" />
        </mxCell>
      </root>
    </mxGraphModel>
  </diagram>
</mxfile>
